<svg xmlns="http://www.w3.org/2000/svg" viewBox="0 0 32 32"><path d="M9.0078125 4.96875L9.0078125 5.96875L9.0078125 16L22.998047 16L22.998047 4.96875L9.0078125 4.96875 z M 11.007812 6.96875L20.998047 6.96875L20.998047 14L19.101562 14L14.039062 8.7480469L11.007812 11.863281L11.007812 6.96875 z M 17.972656 8C17.435656 8 17 8.448 17 9C17 9.552 17.435656 10 17.972656 10C18.509656 10 18.945312 9.552 18.945312 9C18.945312 8.448 18.509656 8 17.972656 8 z M 14.03125 11.623047L16.324219 14L11.720703 14L14.03125 11.623047 z M 5 13C4.172 13 3.5 13.672 3.5 14.5C3.5 15.328 4.172 16 5 16C5.828 16 6.5 15.328 6.5 14.5C6.5 13.672 5.828 13 5 13 z M 27 13C26.172 13 25.5 13.672 25.5 14.5C25.5 15.328 26.172 16 27 16C27.828 16 28.5 15.328 28.5 14.5C28.5 13.672 27.828 13 27 13 z M 3 17L3 19L4 19L4 25L3 25L3 27L7 27L7 25L6 25L6 19L7 19L7 17L3 17 z M 26 17L26 17.001953L25 17.001953L25 19L26 19L26 25L25 25L25 27L29 27L29 25L28 25L28 19L29 19L29 17.001953L28 17.001953L28 17L26 17 z M 8 17.111328L8 19.578125C9.5 20.539125 12.362 22 16 22C19.638 22 22.5 20.539125 24 19.578125L24 17.113281L23.853516 17.236328C23.820516 17.265328 20.532 20 16 20C11.468 20 8.1794375 17.265281 8.1484375 17.238281L8 17.111328 z"/></svg>