<svg xmlns="http://www.w3.org/2000/svg" viewBox="0 0 50 50"><path d="M6.984375 7C5.330375 7 3.984375 8.346 3.984375 10L3.984375 40C3.984375 41.654 5.330375 43 6.984375 43L33.984375 43L33.984375 41L6.984375 41C6.433375 41 5.984375 40.551 5.984375 40L5.984375 15L43.984375 15L43.984375 21.373047C44.396375 21.568047 44.790719 21.803469 45.136719 22.105469C45.420719 22.099469 45.703375 22.122969 45.984375 22.167969L45.984375 10C45.984375 8.346 44.638375 7 42.984375 7L6.984375 7 z M 7.984375 10C8.536375 10 8.984375 10.448 8.984375 11C8.984375 11.552 8.536375 12 7.984375 12C7.432375 12 6.984375 11.552 6.984375 11C6.984375 10.448 7.432375 10 7.984375 10 z M 10.984375 10C11.536375 10 11.984375 10.448 11.984375 11C11.984375 11.552 11.536375 12 10.984375 12C10.432375 12 9.984375 11.552 9.984375 11C9.984375 10.448 10.432375 10 10.984375 10 z M 13.984375 10C14.536375 10 14.984375 10.448 14.984375 11C14.984375 11.552 14.536375 12 13.984375 12C13.432375 12 12.984375 11.552 12.984375 11C12.984375 10.448 13.432375 10 13.984375 10 z M 41.886719 22.884766C40.879719 22.884766 39.952016 23.387109 39.416016 24.162109C38.491016 23.904109 37.441719 24.133219 36.636719 24.824219C35.863719 25.487219 35.4805 26.44225 35.5625 27.40625C34.6905 27.78625 34.045922 28.613766 33.794922 29.759766C33.675922 30.708766 34.015344 31.682609 34.652344 32.349609C34.221344 33.274609 34.233797 34.331688 34.716797 35.179688C35.189797 36.004688 36.039844 36.553828 36.964844 36.673828C37.191844 37.644828 37.886984 38.464359 38.833984 38.818359C39.156984 38.939359 39.490266 39 39.822266 39C40.449266 39 41.074766 38.788812 41.634766 38.382812C42.174766 38.777812 42.771719 38.984375 43.386719 38.984375C43.649719 38.984375 44.082516 38.983688 44.478516 38.804688C45.438516 38.429687 46.0995 37.647781 46.3125 36.675781C47.1985 36.561781 48.033609 36.057625 48.599609 35.265625C48.619609 35.238625 48.637297 35.210641 48.654297 35.181641C49.114297 34.376641 49.149297 33.378328 48.779297 32.486328C49.666297 31.867328 50.105469 30.902438 49.980469 29.773438C49.976469 29.737438 49.970891 29.703969 49.962891 29.667969C49.732891 28.638969 49.108031 27.857359 48.207031 27.443359C48.301031 26.466359 47.918719 25.494219 47.136719 24.824219C46.359719 24.158219 45.357516 23.948797 44.353516 24.216797C43.787516 23.388797 42.881719 22.884766 41.886719 22.884766 z M 47.984375 38.25C47.931375 38.273 47.881172 38.304172 47.826172 38.326172C47.289172 39.373172 46.393047 40.190437 45.248047 40.648438C44.477047 40.981437 43.741766 40.982422 43.384766 40.982422C42.787766 40.982422 42.197719 40.868437 41.636719 40.648438C41.055719 40.879438 40.443219 41 39.824219 41L39.822266 41C39.245266 41 38.676859 40.896406 38.130859 40.691406C37.274859 40.371406 36.539375 39.823953 35.984375 39.126953L35.984375 49C35.984375 49.36 36.178187 49.692141 36.492188 49.869141C36.805188 50.047141 37.19 50.043422 37.5 49.857422L41.984375 47.166016L46.470703 49.857422C46.629703 49.953422 46.807375 50 46.984375 50C47.154375 50 47.325516 49.956141 47.478516 49.869141C47.791516 49.692141 47.984375 49.36 47.984375 49L47.984375 38.25 z"/></svg>