<svg xmlns="http://www.w3.org/2000/svg" viewBox="0 0 50 50"><path d="M29.167969 2L7 2L7 48L43 48L43 15.433594 Z M 27 32C24.730469 32 23.109375 30.964844 22 29.621094L22 37C22 37.550781 21.554688 38 21 38C20.445313 38 20 37.550781 20 37L20 25C20 24.476563 20.402344 24.042969 20.925781 24.003906C21.4375 23.960938 21.910156 24.335938 21.988281 24.851563C22.019531 25.058594 22.835938 30 27 30C29.054688 30 31 28.054688 31 26C31 23.945313 29.054688 22 27 22L21 22C20.445313 22 20 21.550781 20 21C20 20.449219 20.445313 20 21 20L27 20C30.140625 20 33 22.859375 33 26C33 29.140625 30.140625 32 27 32 Z M 29 16L29 4L41 16Z"/></svg>