<svg xmlns="http://www.w3.org/2000/svg" viewBox="0 0 50 50"><path d="M25.001953 0C12.439953 -1.1842379e-15 4 4.6530469 4 8.9980469C4 13.345047 12.439953 18 25.001953 18C37.562953 18 46 13.345047 46 8.9980469C46 4.6530469 37.562953 0 25.001953 0 z M 4 13.609375L4 19.150391C4 23.424391 12.439953 28 25.001953 28C37.562953 28 46 23.424391 46 19.150391L46 13.609375C42.328 17.363375 34.412953 20 25.001953 20C15.588953 20 7.673 17.362375 4 13.609375 z M 4 23.910156L4 29.195312C4 33.468312 12.439953 38 25.001953 38C37.562953 38 46 33.467313 46 29.195312L46 23.910156C42.328 27.662156 34.412953 30 25.001953 30C15.588953 30 7.673 27.662156 4 23.910156 z M 4 33.955078L4 39.150391C4 43.423391 12.439953 48 25.001953 48C37.562953 48 46 43.423391 46 39.150391L46 33.955078C42.328 37.708078 34.412953 40 25.001953 40C15.588953 40 7.673 37.708078 4 33.955078 z"/></svg>