<svg xmlns="http://www.w3.org/2000/svg" viewBox="0 0 24 24"><path d="M4 3C3.448 3 3 3.448 3 4L3 9.7929688C3 10.237969 3.5385156 10.461484 3.8535156 10.146484L5 9L13 9C13.552 9 14 8.552 14 8L14 4C14 3.448 13.552 3 13 3L4 3 z M 16 4L16 8C16 8.771 15.699703 9.468 15.220703 10L19 10L20.146484 11.146484C20.461484 11.461484 21 11.237969 21 10.792969L21 5C21 4.448 20.552 4 20 4L16 4 z M 7 12 A 2 2 0 0 0 5 14 A 2 2 0 0 0 7 16 A 2 2 0 0 0 9 14 A 2 2 0 0 0 7 12 z M 17 12 A 2 2 0 0 0 15 14 A 2 2 0 0 0 17 16 A 2 2 0 0 0 19 14 A 2 2 0 0 0 17 12 z M 7 18C5.665 18 3 18.67 3 20L3 20.5C3 20.776 3.224 21 3.5 21L10.5 21C10.776 21 11 20.776 11 20.5L11 20C11 18.67 8.335 18 7 18 z M 17 18C15.665 18 13 18.67 13 20L13 20.5C13 20.776 13.224 21 13.5 21L20.5 21C20.776 21 21 20.776 21 20.5L21 20C21 18.67 18.335 18 17 18 z"/></svg>