<svg xmlns="http://www.w3.org/2000/svg" viewBox="0 0 50 50"><path d="M22 0C15 0 10 7 10 14C10 29.5 23 42 23 42C23 42 14 29 14 14C14 2 22 0 22 0 z M 25 0C22.4 0 18 3.159 18 15C18 26.058 23.578406 40.737422 23.816406 41.357422L24.0625 42L25.9375 42L26.183594 41.357422C26.420594 40.737422 32 26.058 32 15C32 3.159 27.6 0 25 0 z M 28 0C28 0 36 2 36 14C36 29 27 42 27 42C27 42 40 29.5 40 14C40 7 35 0 28 0 z M 14 2C14 2 6 5 6 14C6 31 21.5 42 21.5 42C21.5 42 8 30 8 14C8 5.75 14 2 14 2 z M 36 2C36 2 42 5.75 42 14C42 30 28.5 42 28.5 42C28.5 42 44 31 44 14C44 5 36 2 36 2 z M 21 44C20.692 44 20.402891 44.141766 20.212891 44.384766C20.022891 44.627766 19.954297 44.943188 20.029297 45.242188L21.029297 49.242188C21.141297 49.686187 21.541 50 22 50L28 50C28.459 50 28.858703 49.687188 28.970703 49.242188L29.970703 45.242188C30.045703 44.943188 29.976109 44.627766 29.787109 44.384766C29.598109 44.141766 29.308 44 29 44L21 44 z"/></svg>