<svg xmlns="http://www.w3.org/2000/svg" viewBox="0 0 24 24"><path d="M3 3C1.895 3 1 3.895 1 5L1 17C1 18.105 1.895 19 3 19L8 19L8 20C8 20.552 8.448 21 9 21L13.380859 21C13.148859 20.596 12.983344 20.146109 12.902344 19.662109L12.597656 17.835938C12.517656 17.352938 12.099328 17 11.611328 17L3 17L3 5L21 5L21 6.0449219C21 6.6049219 21.466391 7.0512969 22.025391 7.0292969C22.034391 7.0292969 22.044688 7.0273437 22.054688 7.0273438C22.583687 7.0073437 23 6.5719687 23 6.0429688L23 5C23 3.895 22.105 3 21 3L3 3 z M 16.107422 6.0117188C15.988922 6.0584688 15.963688 6.2554219 16.054688 6.6074219C16.237968 7.3154362 16.550597 8.6501281 16.767578 10.416016C16.077453 9.6536406 15.238984 9.2673906 14.646484 9.0878906C14.072484 8.9138906 13.647922 8.9121094 14.419922 9.9121094C14.928798 10.570843 15.629214 11.692067 15.890625 13L15 13C14.382 13 13.911719 13.554063 14.011719 14.164062L14.873047 19.330078C15.036047 20.297078 15.865703 21 16.845703 21L19.152344 21C20.133344 21 20.963 20.297125 21.125 19.328125L21.986328 14.164062C22.088328 13.555062 21.618 13 21 13L20.109375 13C20.370786 11.692067 21.071202 10.570843 21.580078 9.9121094C22.352078 8.9121094 21.927516 8.9138906 21.353516 9.0878906C20.794302 9.2573065 20.019405 9.6225709 19.353516 10.302734C18.641393 8.3339129 17.496119 6.9812312 16.724609 6.3164062C16.437609 6.0684063 16.225922 5.9649687 16.107422 6.0117188 z"/></svg>